<svg width="156" height="28" viewBox="0 0 156 28" fill="none" xmlns="http://www.w3.org/2000/svg">
<g clip-path="url(#clip0_824_7440)">
<path d="M32.75 3.07861V23.4556H36.1284V5.83463H42.1593V23.4556H45.5378V3.07861H32.75Z" fill="#1A1B22"/>
<path d="M51.3897 8.70823H48.3184V27.7071H51.6409V21.726C52.4786 23.0455 53.7071 23.7491 55.1311 23.7491C58.3699 23.7491 60.6035 21.0224 60.6035 16.0674C60.6035 11.1417 58.4257 8.41504 55.2986 8.41504C53.735 8.41504 52.4507 9.17734 51.5572 10.614L51.3897 8.70823ZM54.2934 20.9931C52.5344 20.9931 51.6409 19.4978 51.6409 16.0967C51.6409 12.6664 52.5903 11.1711 54.461 11.1711C56.2758 11.1711 57.1693 12.6664 57.1693 16.0674C57.1693 19.4978 56.22 20.9931 54.2934 20.9931Z" fill="#1A1B22"/>
<path d="M73.1864 13.3993C73.1864 9.82233 71.4554 8.47363 67.9373 8.47363C65.7316 8.47363 64.0005 9.20662 62.9953 9.82233V12.7249C63.8888 12.0213 65.8433 11.259 67.5464 11.259C69.1379 11.259 69.8639 11.8454 69.8639 13.4287V14.2496H69.3334C64.2518 14.2496 61.9902 16.0087 61.9902 18.9993C61.9902 21.9898 63.7213 23.6611 66.29 23.6611C68.2444 23.6611 69.0821 22.9867 69.7243 22.2831H69.8639C69.8918 22.6642 70.0035 23.1626 70.1152 23.4559H73.354C73.2423 22.2537 73.1864 21.0516 73.1864 19.8496V13.3993ZM69.8639 19.9375C69.445 20.5826 68.6633 21.1103 67.4906 21.1103C66.0945 21.1103 65.3965 20.2894 65.3965 19.0287C65.3965 17.3574 66.5413 16.7417 69.3892 16.7417H69.8639V19.9375Z" fill="#1A1B22"/>
<path d="M84.0941 23.4557H87.8634L82.5305 15.6274L87.2212 8.70801H83.8707L79.18 15.6274V8.70801H75.8574V23.4557H79.18V16.331L84.0941 23.4557Z" fill="#1A1B22"/>
<path d="M99.0037 11.464V8.70801H87.8633V11.464H91.7722V23.4557H95.0948V11.464H99.0037Z" fill="#1A1B22"/>
<path d="M100.971 8.70801V23.4557H103.93L109.012 14.3373V23.4557H112.223V8.70801H109.263L104.182 17.8263V8.70801H100.971Z" fill="#1A1B22"/>
<path d="M123.249 23.4557H127.018L121.685 15.6274L126.376 8.70801H123.025L118.335 15.6274V8.70801H115.012V23.4557H118.335V16.331L123.249 23.4557Z" fill="#1A1B22"/>
<path d="M129.941 28.0002C133.041 28.0002 134.185 25.684 135.135 22.664L139.518 8.70801H136.307L133.208 19.7907L130.109 8.70801H126.619L131.449 24.1007C131.086 24.8044 130.556 25.2442 129.634 25.2442C129.02 25.2442 128.489 25.0389 128.127 24.6577V27.5017C128.127 27.5017 128.629 28.0002 129.941 28.0002Z" fill="#1A1B22"/>
<path d="M152.759 23.4557H155.998L155.942 8.70801H151.391L148.347 18.53L145.611 8.70801H140.781V23.4557H143.601V12.4316L146.644 23.4557H149.352L152.759 12.4316V23.4557Z" fill="#1A1B22"/>
<path d="M13 26.963C20.1797 26.963 26 20.9271 26 13.4815C26 6.03586 20.1797 0 13 0C5.8203 0 0 6.03586 0 13.4815C0 20.9271 5.8203 26.963 13 26.963Z" fill="#1A1B22"/>
<path d="M15.0463 21.9075H17.8802V5.05566H13.7549C9.60574 5.05566 7.42951 7.25804 7.42951 10.5121C7.42951 13.3207 8.84046 14.9045 11.3396 16.6243L12.8581 17.6636L10.9091 15.9685L7.04688 21.9075H10.1199L14.2452 15.5231L12.8103 14.5332C11.0765 13.3207 10.2275 12.3804 10.2275 10.3389C10.2275 8.54482 11.4472 7.33227 13.7669 7.33227H15.0344V21.9075H15.0463Z" fill="white"/>
</g>
<defs>
<clipPath id="clip0_824_7440">
<rect width="156" height="28" fill="white"/>
</clipPath>
</defs>
</svg>
