<svg width="25" height="24" viewBox="0 0 25 24" fill="none" xmlns="http://www.w3.org/2000/svg">
<path d="M8.93434 17.9221C8.93439 17.6569 9.03979 17.4026 9.22734 17.2151L13.8133 12.6291C13.9958 12.439 14.0977 12.1856 14.0977 11.9221C14.0977 11.6586 13.9958 11.4052 13.8133 11.2151L9.22734 6.62909C9.04518 6.44049 8.94438 6.18788 8.94666 5.92569C8.94894 5.66349 9.05411 5.41268 9.23952 5.22727C9.42493 5.04186 9.67574 4.93669 9.93794 4.93441C10.2001 4.93214 10.4527 5.03293 10.6413 5.21509L15.2273 9.80109C15.7728 10.3727 16.0771 11.1325 16.0771 11.9226C16.0771 12.7127 15.7728 13.4725 15.2273 14.0441L10.6413 18.6291C10.5015 18.7689 10.3233 18.8641 10.1294 18.9027C9.93542 18.9412 9.73438 18.9214 9.55168 18.8458C9.36898 18.7701 9.21282 18.642 9.10294 18.4775C8.99305 18.3131 8.93438 18.1198 8.93434 17.9221Z" fill="#797981"/>
</svg>
