<svg width="25" height="27" viewBox="0 0 25 27" fill="none" xmlns="http://www.w3.org/2000/svg">
<g filter="url(#filter0_d_1042_20259)">
<path d="M16.0774 5.93436C16.0773 6.19955 15.9719 6.45386 15.7844 6.64136L11.1984 11.2274C11.0159 11.4175 10.914 11.6708 10.914 11.9344C10.914 12.1979 11.0159 12.4512 11.1984 12.6414L15.7844 17.2274C15.9665 17.416 16.0673 17.6686 16.0651 17.9308C16.0628 18.193 15.9576 18.4438 15.7722 18.6292C15.5868 18.8146 15.336 18.9198 15.0738 18.922C14.8116 18.9243 14.559 18.8235 14.3704 18.6414L9.78438 14.0554C9.23891 13.4837 8.93457 12.724 8.93457 11.9339C8.93457 11.1437 9.23891 10.384 9.78438 9.81236L14.3704 5.22736C14.5102 5.08755 14.6884 4.99234 14.8824 4.95377C15.0763 4.91521 15.2773 4.93501 15.46 5.01068C15.6427 5.08635 15.7989 5.21449 15.9088 5.3789C16.0187 5.54331 16.0773 5.73661 16.0774 5.93436Z" fill="#797981"/>
</g>
<defs>
<filter id="filter0_d_1042_20259" x="-3.5" y="0" width="32" height="32" filterUnits="userSpaceOnUse" color-interpolation-filters="sRGB">
<feFlood flood-opacity="0" result="BackgroundImageFix"/>
<feColorMatrix in="SourceAlpha" type="matrix" values="0 0 0 0 0 0 0 0 0 0 0 0 0 0 0 0 0 0 127 0" result="hardAlpha"/>
<feOffset dy="4"/>
<feGaussianBlur stdDeviation="2"/>
<feComposite in2="hardAlpha" operator="out"/>
<feColorMatrix type="matrix" values="0 0 0 0 0 0 0 0 0 0 0 0 0 0 0 0 0 0 0.25 0"/>
<feBlend mode="normal" in2="BackgroundImageFix" result="effect1_dropShadow_1042_20259"/>
<feBlend mode="normal" in="SourceGraphic" in2="effect1_dropShadow_1042_20259" result="shape"/>
</filter>
</defs>
</svg>
