<svg width="24" height="24" viewBox="0 0 24 24" fill="none" xmlns="http://www.w3.org/2000/svg">
<path fill-rule="evenodd" clip-rule="evenodd" d="M3.6 2C3.17565 2 2.76869 2.16857 2.46863 2.46863C2.16857 2.76869 2 3.17565 2 3.6V21.2C2 21.6243 2.16857 22.0313 2.46863 22.3314C2.76869 22.6314 3.17565 22.8 3.6 22.8H15.6C15.8122 22.8 16.0157 22.7157 16.1657 22.5657C16.3157 22.4157 16.4 22.2122 16.4 22C16.4 21.7878 16.3157 21.5843 16.1657 21.4343C16.0157 21.2843 15.8122 21.2 15.6 21.2H3.6V3.6H15.6C15.8122 3.6 16.0157 3.51571 16.1657 3.36569C16.3157 3.21566 16.4 3.01217 16.4 2.8C16.4 2.58783 16.3157 2.38434 16.1657 2.23431C16.0157 2.08429 15.8122 2 15.6 2H3.6ZM18.9664 8.2336C18.8162 8.08338 18.6124 7.99899 18.4 7.99899C18.1876 7.99899 17.9838 8.08338 17.8336 8.2336C17.6834 8.38382 17.599 8.58756 17.599 8.8C17.599 9.01244 17.6834 9.21618 17.8336 9.3664L20.0688 11.6H9.2C8.98783 11.6 8.78434 11.6843 8.63432 11.8343C8.48429 11.9843 8.4 12.1878 8.4 12.4C8.4 12.6122 8.48429 12.8157 8.63432 12.9657C8.78434 13.1157 8.98783 13.2 9.2 13.2H20.0688L17.8336 15.4336C17.6834 15.5838 17.599 15.7876 17.599 16C17.599 16.2124 17.6834 16.4162 17.8336 16.5664C17.9838 16.7166 18.1876 16.801 18.4 16.801C18.6124 16.801 18.8162 16.7166 18.9664 16.5664L22.5664 12.9664C22.6409 12.8921 22.7 12.8038 22.7403 12.7066C22.7807 12.6094 22.8014 12.5052 22.8014 12.4C22.8014 12.2948 22.7807 12.1906 22.7403 12.0934C22.7 11.9962 22.6409 11.9079 22.5664 11.8336L18.9664 8.2336Z" fill="#1D6BF3"/>
</svg>
