<svg width="156" height="28" viewBox="0 0 156 28" fill="none" xmlns="http://www.w3.org/2000/svg">
<g clip-path="url(#clip0_1090_14110)">
<path fill-rule="evenodd" clip-rule="evenodd" d="M32.75 3.0791V23.4561H36.1284V5.83512H42.1593V23.4561H45.5378V3.0791H32.75ZM51.3906 8.70823H48.3193V27.7071H51.6418V21.726C52.4795 23.0455 53.708 23.7491 55.132 23.7491C58.3708 23.7491 60.6044 21.0224 60.6044 16.0674C60.6044 11.1417 58.4266 8.41504 55.2995 8.41504C53.7359 8.41504 52.4516 9.17734 51.5581 10.614L51.3906 8.70823ZM54.2943 20.9931C52.5353 20.9931 51.6418 19.4977 51.6418 16.0967C51.6418 12.6664 52.5912 11.1711 54.4619 11.1711C56.2767 11.1711 57.1702 12.6664 57.1702 16.0674C57.1702 19.4977 56.2209 20.9931 54.2943 20.9931ZM67.9373 8.47363C71.4554 8.47363 73.1864 9.82233 73.1864 13.3993V19.8496C73.1864 21.0516 73.2423 22.2537 73.354 23.4559H70.1152C70.0035 23.1626 69.8918 22.6642 69.8639 22.2831H69.7243C69.0821 22.9867 68.2444 23.6611 66.29 23.6611C63.7213 23.6611 61.9902 21.9898 61.9902 18.9993C61.9902 16.0087 64.2518 14.2496 69.3334 14.2496H69.8639V13.4287C69.8639 11.8454 69.1379 11.259 67.5464 11.259C65.8433 11.259 63.8888 12.0213 62.9953 12.7249V9.82233C64.0005 9.20662 65.7316 8.47363 67.9373 8.47363ZM67.4906 21.1103C68.6633 21.1103 69.445 20.5826 69.8639 19.9375V16.7417H69.3892C66.5413 16.7417 65.3965 17.3574 65.3965 19.0287C65.3965 20.2894 66.0945 21.1103 67.4906 21.1103ZM84.0951 23.4557H87.8644L82.5315 15.6274L87.2222 8.70801H83.8717L79.181 15.6274V8.70801H75.8584V23.4557H79.181V16.331L84.0951 23.4557ZM99.0037 8.70801V11.464H95.0948V23.4557H91.7722V11.464H87.8633V8.70801H99.0037ZM100.971 8.70801V23.4557H103.93L109.012 14.3373V23.4557H112.223V8.70801H109.263L104.182 17.8263V8.70801H100.971ZM127.019 23.4557H123.25L118.336 16.331V23.4557H115.013V8.70801H118.336V15.6274L123.026 8.70801H126.377L121.686 15.6274L127.019 23.4557ZM129.942 28.0002C133.042 28.0002 134.186 25.684 135.136 22.664L139.519 8.70801H136.308L133.209 19.7907L130.11 8.70801H126.62L131.45 24.1007C131.087 24.8044 130.557 25.2442 129.635 25.2442C129.021 25.2442 128.49 25.0389 128.128 24.6577V27.5017C128.128 27.5017 128.63 28.0002 129.942 28.0002ZM155.997 23.4557H152.758V12.4316L149.351 23.4557H146.643L143.6 12.4316V23.4557H140.78V8.70801H145.61L148.346 18.53L151.39 8.70801H155.941L155.997 23.4557Z" fill="#2B2D33"/>
<path d="M13 26.963C20.1797 26.963 26 20.9271 26 13.4815C26 6.03586 20.1797 0 13 0C5.8203 0 0 6.03586 0 13.4815C0 20.9271 5.8203 26.963 13 26.963Z" fill="#2B2D33"/>
<path d="M15.0463 21.9075H17.8802V5.05566H13.7549C9.60574 5.05566 7.42951 7.25804 7.42951 10.5121C7.42951 13.3207 8.84046 14.9045 11.3396 16.6243L12.8581 17.6636L10.9091 15.9685L7.04688 21.9075H10.1199L14.2452 15.5231L12.8103 14.5332C11.0765 13.3207 10.2275 12.3804 10.2275 10.3389C10.2275 8.54482 11.4472 7.33227 13.7669 7.33227H15.0344V21.9075H15.0463Z" fill="white"/>
</g>
<defs>
<clipPath id="clip0_1090_14110">
<rect width="156" height="28" fill="white"/>
</clipPath>
</defs>
</svg>
