<svg width="24" height="24" viewBox="0 0 24 24" fill="none" xmlns="http://www.w3.org/2000/svg">
<g clip-path="url(#clip0_850_19133)">
<path d="M22.3233 8.55946H20.8106V7.04667C20.8106 6.12215 20.0585 5.36999 19.134 5.36999H17.6212V3.85734C17.6212 2.92977 16.8687 2.18066 15.9446 2.18066H1.67667C0.754453 2.18071 0 2.92743 0 3.85734V13.7635C0 14.688 0.752156 15.4402 1.67667 15.4402H3.18937V16.953C3.18937 17.8775 3.94153 18.6297 4.86605 18.6297H6.37875V20.1424C6.37875 21.0669 7.13091 21.819 8.05542 21.819H22.3234C23.2479 21.819 24 21.0669 24 20.1424V10.2361C24 9.31162 23.2478 8.55946 22.3233 8.55946ZM14.7343 3.85499L8.81063 9.66032L2.88708 3.85513L14.7343 3.85499ZM1.67442 13.7635L1.67475 5.01145L8.22464 11.4305C8.55019 11.7495 9.07116 11.7494 9.39661 11.4305L15.9465 5.0114L15.9447 13.7658L1.67442 13.7635ZM4.8638 16.9529V15.4402H15.9447C16.8692 15.4402 17.6213 14.6881 17.6213 13.7635V7.0447L19.1362 7.04517C19.1362 7.04517 19.1362 7.04568 19.1362 7.04671L19.134 16.9552L4.8638 16.9529ZM22.3233 20.1445L8.05317 20.1423V18.6296H19.134C20.0586 18.6296 20.8107 17.8774 20.8107 16.9529V10.2341L22.3256 10.2345C22.3256 10.2345 22.3257 10.2351 22.3257 10.2361L22.3233 20.1445Z" fill="#B5B5B7"/>
</g>
<defs>
<clipPath id="clip0_850_19133">
<rect width="24" height="24" fill="white"/>
</clipPath>
</defs>
</svg>
