<svg width="24" height="28" viewBox="0 0 24 28" fill="none" xmlns="http://www.w3.org/2000/svg">
<path d="M18.75 16.8282V13.3216C18.7484 11.7592 18.1827 10.2478 17.1532 9.05501C16.1237 7.86223 14.6967 7.06504 13.125 6.80465V5.6027C13.125 5.31025 13.0065 5.02977 12.7955 4.82297C12.5845 4.61618 12.2984 4.5 12 4.5C11.7016 4.5 11.4155 4.61618 11.2045 4.82297C10.9935 5.02977 10.875 5.31025 10.875 5.6027V6.80465C9.30331 7.06504 7.87634 7.86223 6.84681 9.05501C5.81728 10.2478 5.25162 11.7592 5.25 13.3216V16.8282C4.59351 17.0557 4.02487 17.4767 3.62206 18.0334C3.21924 18.5901 3.00196 19.2553 3 19.9378V22.1432C3 22.4357 3.11853 22.7162 3.32951 22.923C3.54048 23.1298 3.82663 23.2459 4.125 23.2459H7.6575C7.91657 24.1803 8.48213 25.0052 9.26692 25.5933C10.0517 26.1814 11.0121 26.5 12 26.5C12.9879 26.5 13.9483 26.1814 14.7331 25.5933C15.5179 25.0052 16.0834 24.1803 16.3425 23.2459H19.875C20.1734 23.2459 20.4595 23.1298 20.6705 22.923C20.8815 22.7162 21 22.4357 21 22.1432V19.9378C20.998 19.2553 20.7808 18.5901 20.3779 18.0334C19.9751 17.4767 19.4065 17.0557 18.75 16.8282ZM7.5 13.3216C7.5 12.1518 7.97411 11.0299 8.81802 10.2027C9.66193 9.37551 10.8065 8.91081 12 8.91081C13.1935 8.91081 14.3381 9.37551 15.182 10.2027C16.0259 11.0299 16.5 12.1518 16.5 13.3216V16.6297H7.5V13.3216ZM12 24.3486C11.6073 24.3463 11.2221 24.2433 10.8827 24.0499C10.5432 23.8564 10.2613 23.5792 10.065 23.2459H13.935C13.7387 23.5792 13.4568 23.8564 13.1173 24.0499C12.7779 24.2433 12.3927 24.3463 12 24.3486ZM18.75 21.0405H5.25V19.9378C5.25 19.6454 5.36853 19.3649 5.5795 19.1581C5.79048 18.9513 6.07663 18.8351 6.375 18.8351H17.625C17.9234 18.8351 18.2095 18.9513 18.4205 19.1581C18.6315 19.3649 18.75 19.6454 18.75 19.9378V21.0405Z" fill="#2B2D33"/>
<circle cx="18.5" cy="6" r="5.5" fill="#E81818"/>
</svg>
