<svg width="24" height="24" viewBox="0 0 24 24" fill="none" xmlns="http://www.w3.org/2000/svg">
<path d="M23.1984 0.565761C22.8878 0.282848 22.513 0.0974309 22.1138 0.0292421C21.7145 -0.0389468 21.3059 0.012644 20.9313 0.178524L1.38076 8.82042C0.962654 9.00876 0.606754 9.33185 0.360293 9.74682C0.113832 10.1618 -0.011534 10.649 0.000834529 11.1438C0.013203 11.6386 0.162721 12.1176 0.429543 12.5172C0.696366 12.9168 1.06787 13.2181 1.49476 13.3811L5.44941 14.8869L7.65365 22.8674C7.6836 22.9741 7.72707 23.0755 7.78279 23.1689C7.79125 23.1832 7.80317 23.1939 7.81216 23.2078C7.87653 23.3062 7.95432 23.3931 8.04282 23.4655C8.06798 23.4865 8.09208 23.5062 8.11899 23.5249C8.22255 23.6001 8.33725 23.6551 8.45797 23.6874L8.47089 23.6886L8.47821 23.6921C8.55079 23.7082 8.62467 23.7164 8.69874 23.7166C8.70587 23.7166 8.71219 23.7128 8.71925 23.7127C8.83103 23.7106 8.94183 23.6895 9.04772 23.6502C9.07236 23.641 9.09346 23.6257 9.11737 23.6146C9.19633 23.5787 9.27114 23.5328 9.34023 23.4777C9.39557 23.4267 9.45092 23.3756 9.5063 23.3246L12.4542 19.7613L16.851 23.4903C17.238 23.8202 17.7145 23.9996 18.205 24C18.7191 23.9993 19.2172 23.8051 19.616 23.45C20.0149 23.095 20.29 22.6006 20.3955 22.0497L23.9548 2.91958C24.0355 2.48902 24.0077 2.04255 23.8745 1.62794C23.7413 1.21333 23.5076 0.846176 23.1984 0.565761ZM9.13132 15.2671C8.98005 15.4321 8.87665 15.6423 8.83408 15.8713L8.49643 17.6677L7.64107 14.5706L12.076 12.0421L9.13132 15.2671ZM18.188 21.6019L12.9922 17.1952C12.7748 17.0113 12.5021 16.9238 12.2285 16.9502C11.9548 16.9765 11.7003 17.1148 11.5156 17.3375L10.5715 18.4784L10.9052 16.7029L18.6323 8.24302C18.8167 8.04135 18.9291 7.77404 18.949 7.4895C18.969 7.20495 18.8952 6.92199 18.741 6.69187C18.5869 6.46175 18.3625 6.29968 18.1086 6.23503C17.8548 6.17038 17.5881 6.20742 17.357 6.33944L6.26734 12.661L2.20429 11.0331L21.8177 2.44248L18.188 21.6019Z" fill="#5A9BFF"/>
</svg>
